<svg width="32" height="32" viewBox="0 0 32 32" fill="none" xmlns="http://www.w3.org/2000/svg">
<path d="M25.3332 14.3333H22.6665C19.4398 14.3333 17.6665 12.56 17.6665 9.33334V6.66667C17.6665 3.44001 19.4398 1.66667 22.6665 1.66667H25.3332C28.5598 1.66667 30.3332 3.44001 30.3332 6.66667V9.33334C30.3332 12.56 28.5598 14.3333 25.3332 14.3333ZM22.6665 3.66667C20.5598 3.66667 19.6665 4.56001 19.6665 6.66667V9.33334C19.6665 11.44 20.5598 12.3333 22.6665 12.3333H25.3332C27.4398 12.3333 28.3332 11.44 28.3332 9.33334V6.66667C28.3332 4.56001 27.4398 3.66667 25.3332 3.66667H22.6665Z" fill="#292D32"/>
<path d="M9.33317 30.3333H6.6665C3.43984 30.3333 1.6665 28.56 1.6665 25.3333V22.6667C1.6665 19.44 3.43984 17.6667 6.6665 17.6667H9.33317C12.5598 17.6667 14.3332 19.44 14.3332 22.6667V25.3333C14.3332 28.56 12.5598 30.3333 9.33317 30.3333ZM6.6665 19.6667C4.55984 19.6667 3.6665 20.56 3.6665 22.6667V25.3333C3.6665 27.44 4.55984 28.3333 6.6665 28.3333H9.33317C11.4398 28.3333 12.3332 27.44 12.3332 25.3333V22.6667C12.3332 20.56 11.4398 19.6667 9.33317 19.6667H6.6665Z" fill="#292D32"/>
<path d="M7.99984 14.3333C4.5065 14.3333 1.6665 11.4933 1.6665 8.00001C1.6665 4.50667 4.5065 1.66667 7.99984 1.66667C11.4932 1.66667 14.3332 4.50667 14.3332 8.00001C14.3332 11.4933 11.4932 14.3333 7.99984 14.3333ZM7.99984 3.66667C5.61317 3.66667 3.6665 5.61334 3.6665 8.00001C3.6665 10.3867 5.61317 12.3333 7.99984 12.3333C10.3865 12.3333 12.3332 10.3867 12.3332 8.00001C12.3332 5.61334 10.3865 3.66667 7.99984 3.66667Z" fill="#292D32"/>
<path d="M23.9998 30.3333C20.5065 30.3333 17.6665 27.4933 17.6665 24C17.6665 20.5067 20.5065 17.6667 23.9998 17.6667C27.4932 17.6667 30.3332 20.5067 30.3332 24C30.3332 27.4933 27.4932 30.3333 23.9998 30.3333ZM23.9998 19.6667C21.6132 19.6667 19.6665 21.6133 19.6665 24C19.6665 26.3867 21.6132 28.3333 23.9998 28.3333C26.3865 28.3333 28.3332 26.3867 28.3332 24C28.3332 21.6133 26.3865 19.6667 23.9998 19.6667Z" fill="#292D32"/>
</svg>
