<svg width="32" height="32" viewBox="0 0 32 32" fill="none" xmlns="http://www.w3.org/2000/svg">
<path d="M20.3199 29.6933H20.1465C14.2265 29.6933 11.3732 27.36 10.8799 22.1333C10.8265 21.5867 11.2265 21.0933 11.7865 21.04C12.3199 20.9867 12.8265 21.4 12.8799 21.9467C13.2665 26.1333 15.2399 27.6933 20.1599 27.6933H20.3332C25.7599 27.6933 27.6799 25.7733 27.6799 20.3467V11.6533C27.6799 6.22667 25.7599 4.30667 20.3332 4.30667H20.1599C15.2132 4.30667 13.2399 5.89334 12.8799 10.16C12.8132 10.7067 12.3465 11.12 11.7865 11.0667C11.2265 11.0267 10.8265 10.5333 10.8665 9.98667C11.3199 4.68 14.1865 2.30667 20.1465 2.30667H20.3199C26.8665 2.30667 29.6665 5.10667 29.6665 11.6533V20.3467C29.6665 26.8933 26.8665 29.6933 20.3199 29.6933Z" fill="#FF4040"/>
<path d="M20 17H4.82666C4.27999 17 3.82666 16.5467 3.82666 16C3.82666 15.4533 4.27999 15 4.82666 15H20C20.5467 15 21 15.4533 21 16C21 16.5467 20.5467 17 20 17Z" fill="#FF4040"/>
<path d="M7.79976 21.4667C7.54643 21.4667 7.29309 21.3733 7.09309 21.1733L2.62643 16.7067C2.23976 16.32 2.23976 15.68 2.62643 15.2933L7.09309 10.8267C7.47976 10.44 8.11976 10.44 8.50643 10.8267C8.89309 11.2133 8.89309 11.8533 8.50643 12.24L4.74643 16L8.50643 19.76C8.89309 20.1467 8.89309 20.7867 8.50643 21.1733C8.31976 21.3733 8.05309 21.4667 7.79976 21.4667Z" fill="#FF4040"/>
</svg>
