<svg width="32" height="32" viewBox="0 0 32 32" fill="none" xmlns="http://www.w3.org/2000/svg">
<path d="M10.6665 29.7598C10.2932 29.7598 9.90648 29.6666 9.55981 29.4799C8.79981 29.0799 8.33317 28.2798 8.33317 27.4265V25.5333C4.3065 25.1199 1.6665 22.1598 1.6665 17.9198V9.91992C1.6665 5.33325 4.7465 2.25325 9.33317 2.25325H22.6665C27.2532 2.25325 30.3332 5.33325 30.3332 9.91992V17.9198C30.3332 22.5065 27.2532 25.5865 22.6665 25.5865H17.6398L11.9598 29.3733C11.5731 29.6266 11.1198 29.7598 10.6665 29.7598ZM9.33317 4.2399C5.89317 4.2399 3.6665 6.46657 3.6665 9.90657V17.9067C3.6665 21.3467 5.89317 23.5733 9.33317 23.5733C9.87984 23.5733 10.3332 24.0267 10.3332 24.5733V27.4133C10.3332 27.5867 10.4398 27.6666 10.5065 27.7066C10.5732 27.7466 10.7065 27.7866 10.8532 27.6933L16.7865 23.7467C16.9465 23.64 17.1465 23.5733 17.3465 23.5733H22.6798C26.1198 23.5733 28.3465 21.3467 28.3465 17.9067V9.90657C28.3465 6.46657 26.1198 4.2399 22.6798 4.2399H9.33317Z" fill="#292D32"/>
<path d="M15.9999 16.1467C15.4533 16.1467 14.9999 15.6933 14.9999 15.1467V14.8667C14.9999 13.32 16.1332 12.56 16.5599 12.2667C17.0532 11.9334 17.2132 11.7067 17.2132 11.36C17.2132 10.6934 16.6666 10.1467 15.9999 10.1467C15.3333 10.1467 14.7866 10.6934 14.7866 11.36C14.7866 11.9067 14.3333 12.36 13.7866 12.36C13.24 12.36 12.7866 11.9067 12.7866 11.36C12.7866 9.5867 14.2266 8.14665 15.9999 8.14665C17.7733 8.14665 19.2132 9.5867 19.2132 11.36C19.2132 12.88 18.0933 13.64 17.6799 13.92C17.1599 14.2667 16.9999 14.4934 16.9999 14.8667V15.1467C16.9999 15.7067 16.5466 16.1467 15.9999 16.1467Z" fill="#292D32"/>
<path d="M16 19.4666C15.44 19.4666 15 19.0133 15 18.4666C15 17.92 15.4533 17.4666 16 17.4666C16.5467 17.4666 17 17.92 17 18.4666C17 19.0133 16.56 19.4666 16 19.4666Z" fill="#292D32"/>
</svg>
