<svg width="18" height="18" viewBox="0 0 32 32" fill="none" xmlns="http://www.w3.org/2000/svg">
<path d="M18.96 28.84C17.3867 28.84 15.16 27.7333 13.4 22.44L12.44 19.56L9.56001 18.6C4.28001 16.84 3.17334 14.6133 3.17334 13.04C3.17334 11.48 4.28001 9.24 9.56001 7.46667L20.88 3.69334C23.7067 2.74667 26.0667 3.02667 27.52 4.46667C28.9733 5.90667 29.2533 8.28 28.3067 11.1067L24.5333 22.4267C22.76 27.7333 20.5333 28.84 18.96 28.84ZM10.1867 9.37334C6.48001 10.6133 5.16001 12.08 5.16001 13.04C5.16001 14 6.48001 15.4667 10.1867 16.6933L13.5467 17.8133C13.84 17.9067 14.08 18.1467 14.1733 18.44L15.2933 21.8C16.52 25.5067 18 26.8267 18.96 26.8267C19.92 26.8267 21.3867 25.5067 22.6267 21.8L26.4 10.48C27.08 8.42667 26.96 6.74667 26.0933 5.88C25.2267 5.01334 23.5467 4.90667 21.5067 5.58667L10.1867 9.37334Z" fill="#292D32"/>
<path d="M13.4801 19.2C13.2267 19.2 12.9734 19.1067 12.7734 18.9067C12.3867 18.52 12.3867 17.88 12.7734 17.4933L17.5467 12.7067C17.9334 12.32 18.5734 12.32 18.9601 12.7067C19.3467 13.0933 19.3467 13.7333 18.9601 14.12L14.1867 18.9067C14.0001 19.1067 13.7334 19.2 13.4801 19.2Z" fill="#292D32"/>
</svg>
